<svg id="Capa_1" enable-background="new 0 0 512 512" height="512" viewBox="0 0 512 512" width="512" xmlns="http://www.w3.org/2000/svg"><g><g><g><g><g><g><g><circle cx="256" cy="256" fill="#7584f2" r="256"/></g></g></g></g></g></g><path d="m512 256c0-27.882-4.458-54.723-12.699-79.849l-108.525-108.526-259.634 354.039 87.652 87.652c12.146 1.768 24.569 2.684 37.206 2.684 141.385 0 256-114.615 256-256z" fill="#4253ce"/><g><path d="m268.422 432.375h-112c-19.439 0-35.198-15.759-35.198-35.198v-302.185l147.198 27.367z" fill="#00d65b"/></g><g><path d="m390.776 122.358-134.598-13.48v323.497h134.598z" fill="#06bf51"/></g><g><path d="m256.178 215.596v-30c-43.458 0-79.232 33.53-82.81 76.079l-11.316-11.316-21.213 21.214 47.226 47.223 47.22-47.223-21.214-21.213-10.405 10.406c3.84-25.532 25.926-45.17 52.512-45.17z" fill="#fff"/><path d="m370.762 268.667-46.485-46.478-46.486 46.475 21.211 21.216 8.831-8.829c-5.581 23.346-26.623 40.754-51.655 40.754v30c42.344 0 77.392-31.833 82.471-72.824l10.902 10.9z" fill="#e9edf5"/></g><g><path d="m390.776 122.358h-242.186c-15.114 0-27.367-12.252-27.367-27.367 0-15.114 12.252-27.367 27.367-27.367h242.186z" fill="#fff"/></g><g><path d="m256.178 67.625h134.598v54.733h-134.598z" fill="#e9edf5"/></g></g></svg>